<svg xmlns="http://www.w3.org/2000/svg" viewBox="0 0 339.51 338.73"><defs><style>.cls-1{fill:#8bc447;}.cls-2{font-size:218.59px;fill:#e33e2b;font-family:Righteous-Regular, Righteous;}.cls-3{fill:#f9af1b;}.cls-4{fill:#3a7cec;}</style></defs><title>logochibcha</title><g id="Capa_2" data-name="Capa 2"><g id="Capa_1-2" data-name="Capa 1"><path class="cls-1" d="M339.31,265.53c0,18.14-.33,36.28.11,54.41.29,11.81-2.69,18.94-16.47,18.78-38.08-.43-76.17-.08-114.26-.16-7.23,0-15.15.55-15.48-10.24-.4-13.4,9.7-10.64,17.18-10.71,29-.28,58.09-1.14,87,.25,17.46.84,21.64-5.73,21-21.89-1.11-29-.4-58-.24-87,0-7.87-1.78-17.48,11.45-16.52,10.87.79,9.54,9,9.6,16C339.42,227.45,339.31,246.49,339.31,265.53Z"/><text class="cls-2" transform="translate(94.94 242.63)">C</text><path class="cls-3" d="M.71,74.17C.56,56,.74,37.89.13,19.77-.26,8,2.66.81,16.44.84,54.53.94,92.61.27,130.7,0c7.23,0,15.15-.68,15.57,10.1.52,13.4-9.6,10.72-17.09,10.86-29,.53-58.08,1.64-87,.5-17.47-.69-21.59,5.92-20.83,22.07,1.36,29,.9,58,1,87,0,7.87,1.93,17.47-11.3,16.62-10.87-.7-9.62-8.87-9.74-15.91C.94,112.26.87,93.22.71,74.17Z"/><path class="cls-4" d="M266.38.56c18.14.08,36.28.48,54.41.1C332.6.42,339.71,3.43,339.5,17.21c-.58,38.08-.38,76.17-.61,114.26,0,7.23.49,15.16-10.3,15.44-13.4.35-10.6-9.74-10.65-17.22-.17-29-.91-58.09.6-87,.91-17.46-5.65-21.66-21.8-21.1-29,1-58,.17-87-.11-7.87-.07-17.49,1.71-16.48-11.51.83-10.87,9-9.51,16-9.54C228.29.3,247.33.48,266.38.56Z"/><path class="cls-4" d="M73.19,338.52c-18.14,0-36.28-.33-54.41.11C7,338.93-.15,335.95,0,322.17.43,284.08.08,246,.16,207.91c0-7.23-.55-15.15,10.24-15.48,13.4-.4,10.64,9.7,10.71,17.18.28,29,1.14,58.09-.25,87-.84,17.46,5.73,21.64,21.89,21,29-1.11,58-.4,87-.24,7.87,0,17.48-1.78,16.52,11.45-.79,10.87-9,9.54-16,9.6C111.28,338.63,92.24,338.53,73.19,338.52Z"/></g></g></svg>