<svg xmlns="http://www.w3.org/2000/svg" viewBox="0 0 339.51 338.73"><defs><style>.cls-1{fill:#8bc447;}.cls-2{fill:#e33e2b;}.cls-3{fill:#f9af1b;}.cls-4{fill:#3a7cec;}</style></defs><g id="Capa_2" data-name="Capa 2"><g id="Capa_1-2" data-name="Capa 1"><path class="cls-1" d="M339.31 265.53c0 18.14-.33 36.28.11 54.41.29 11.81-2.69 18.94-16.47 18.78-38.08-.43-76.17-.08-114.26-.16-7.23 0-15.15.55-15.48-10.24-.4-13.4 9.7-10.64 17.18-10.71 29-.28 58.09-1.14 87 .25 17.46.84 21.64-5.73 21-21.89-1.11-29-.4-58-.24-87 0-7.87-1.78-17.48 11.45-16.52 10.87.79 9.54 9 9.6 16 .22 19 .11 38.04.11 57.08z"/><path class="cls-2" d="M231.34 226.94A78.95 78.95 0 0 1 159 243.11a79.72 79.72 0 0 1-55.39-55.39 79.38 79.38 0 0 1 0-42 79.15 79.15 0 0 1 20.44-35 79.37 79.37 0 0 1 35-20.44 77.36 77.36 0 0 1 21-2.83 79 79 0 0 1 27.43 4.86 76.1 76.1 0 0 1 23.91 14.14l-16.22 26.68A45.89 45.89 0 0 0 199.21 122a48.7 48.7 0 0 0-19.21-3.9 47.22 47.22 0 0 0-19 3.84 50 50 0 0 0-15.48 10.41 48.74 48.74 0 0 0-10.46 15.48 47.34 47.34 0 0 0-3.84 18.94 46.58 46.58 0 0 0 3.84 18.84A49.33 49.33 0 0 0 161 211.46a47.22 47.22 0 0 0 19 3.84 48.66 48.66 0 0 0 19.21-3.9 45.84 45.84 0 0 0 15.9-11.15z"/><path class="cls-3" d="M.71 74.17C.56 56 .74 37.89.13 19.77-.26 8 2.66.81 16.44.84 54.53.94 92.61.27 130.7 0c7.23 0 15.15-.68 15.57 10.1.52 13.4-9.6 10.72-17.09 10.86-29 .53-58.08 1.64-87 .5-17.47-.69-21.59 5.92-20.83 22.07 1.36 29 .9 58 1 87 0 7.87 1.93 17.47-11.3 16.62-10.87-.7-9.62-8.87-9.74-15.91-.37-18.98-.44-38.02-.6-57.07z"/><path class="cls-4" d="M266.38.56c18.14.08 36.28.48 54.41.1 11.81-.24 18.92 2.77 18.71 16.55-.58 38.08-.38 76.17-.61 114.26 0 7.23.49 15.16-10.3 15.44-13.4.35-10.6-9.74-10.65-17.22-.17-29-.91-58.09.6-87 .91-17.46-5.65-21.66-21.8-21.1-29 1-58 .17-87-.11-7.87-.07-17.49 1.71-16.48-11.51.83-10.87 9-9.51 16-9.54 19.03-.13 38.07.05 57.12.13zM73.19 338.52c-18.14 0-36.28-.33-54.41.11C7 338.93-.15 335.95 0 322.17c.43-38.09.08-76.17.16-114.26 0-7.23-.55-15.15 10.24-15.48 13.4-.4 10.64 9.7 10.71 17.18.28 29 1.14 58.09-.25 87-.84 17.46 5.73 21.64 21.89 21 29-1.11 58-.4 87-.24 7.87 0 17.48-1.78 16.52 11.45-.79 10.87-9 9.54-16 9.6-18.99.21-38.03.11-57.08.1z"/></g></g></svg>