<svg xmlns="http://www.w3.org/2000/svg" viewBox="0 0 85.4 85.4"><defs><style>.cls-1{fill:#3c3d3d;}.cls-2{fill:none;stroke:#3c3d3d;stroke-linecap:round;stroke-linejoin:round;stroke-width:4px;}</style></defs><title>facebook</title><g id="Capa_2" data-name="Capa 2"><g id="Objects"><path class="cls-1" d="M36.14,68.84H46.59V42.69h7.29l.78-8.76H46.59v-5c0-2.06.41-2.88,2.41-2.88h5.65V17H47.42c-7.77,0-11.27,3.42-11.27,10v7H30.71V42.8h5.43Z"/><path class="cls-2" d="M25.61,2H59.79A23.61,23.61,0,0,1,83.4,25.61V83.4a0,0,0,0,1,0,0H2a0,0,0,0,1,0,0V25.61A23.61,23.61,0,0,1,25.61,2Z"/></g></g></svg>