<svg xmlns="http://www.w3.org/2000/svg" viewBox="0 0 85.4 85.4"><defs><style>.cls-1{fill:none;stroke:#3c3d3d;stroke-linecap:round;stroke-linejoin:round;stroke-width:4px;}.cls-2,.cls-3{fill:#17150d;}.cls-2{fill-rule:evenodd;}</style></defs><title>github</title><g id="Capa_2" data-name="Capa 2"><g id="Objects"><path class="cls-1" d="M25.61,2H59.79A23.61,23.61,0,0,1,83.4,25.61V83.4a0,0,0,0,1,0,0H2a0,0,0,0,1,0,0V25.61A23.61,23.61,0,0,1,25.61,2Z"/><path class="cls-2" d="M43.47,15.05a28.5,28.5,0,0,0-9,55.54c1.42.26,1.95-.62,1.95-1.37s0-2.92,0-5.31c-7.93,1.72-9.6-3.36-9.6-3.36-1.3-3.29-3.16-4.17-3.16-4.17-2.59-1.77.19-1.73.19-1.73a6,6,0,0,1,4.37,2.94c2.54,4.36,6.67,3.1,8.29,2.37a6.07,6.07,0,0,1,1.81-3.81c-6.33-.72-13-3.16-13-14.08a11,11,0,0,1,2.94-7.65,10.24,10.24,0,0,1,.28-7.54s2.39-.77,7.84,2.92a27,27,0,0,1,14.27,0c5.44-3.69,7.83-2.92,7.83-2.92a10.23,10.23,0,0,1,.28,7.54,11,11,0,0,1,2.93,7.65c0,10.95-6.67,13.36-13,14.06,1,.88,1.93,2.62,1.93,5.28,0,3.81,0,6.88,0,7.82,0,.76.51,1.65,2,1.37a28.5,28.5,0,0,0-9-55.54Z"/><path class="cls-3" d="M25.76,56c-.06.14-.29.18-.49.09s-.32-.29-.26-.43.28-.19.49-.09.32.29.25.43Zm-.35-.26"/><path class="cls-3" d="M26.92,57.26c-.14.13-.4.07-.58-.13a.44.44,0,0,1-.08-.59c.14-.13.4-.07.58.13s.22.46.08.59ZM26.64,57"/><path class="cls-3" d="M28,58.9c-.17.12-.46,0-.64-.25s-.17-.56,0-.68.46,0,.64.24.17.56,0,.69Zm0,0"/><path class="cls-3" d="M29.58,60.49c-.16.17-.49.13-.73-.11a.55.55,0,0,1-.16-.73c.16-.17.49-.12.74.11s.32.56.16.73Zm0,0"/><path class="cls-3" d="M31.7,61.41c-.07.22-.39.32-.71.23s-.53-.36-.47-.58.39-.33.71-.23.53.36.47.58Zm0,0"/><path class="cls-3" d="M34,61.58c0,.24-.27.43-.6.43s-.62-.18-.62-.41.27-.43.61-.44.62.18.62.42Zm0,0"/><path class="cls-3" d="M36.21,61.21c0,.23-.19.46-.53.53s-.64-.08-.68-.31.2-.47.53-.53.64.08.68.31Zm0,0"/></g></g></svg>