<svg xmlns="http://www.w3.org/2000/svg" viewBox="0 0 85.4 85.4"><defs><style>.cls-1{fill:#3c3d3d;}.cls-2{fill:none;stroke:#3c3d3d;stroke-linecap:round;stroke-linejoin:round;stroke-width:4px;}</style></defs><title>linkedin </title><g id="Capa_2" data-name="Capa 2"><g id="Objects"><rect class="cls-1" x="23.58" y="32.39" width="8.88" height="28.68"/><ellipse class="cls-1" cx="27.97" cy="23.34" rx="5.25" ry="5.29"/><path class="cls-1" d="M46.64,46c0-4,1.86-6.43,5.41-6.43,3.26,0,4.83,2.31,4.83,6.43V61.07h8.84V42.91c0-7.68-4.35-11.4-10.44-11.4a10,10,0,0,0-8.64,4.74V32.39H38.13V61.07h8.52Z"/><path class="cls-2" d="M25.61,2H59.79A23.61,23.61,0,0,1,83.4,25.61V83.4a0,0,0,0,1,0,0H2a0,0,0,0,1,0,0V25.61A23.61,23.61,0,0,1,25.61,2Z"/></g></g></svg>