<svg xmlns="http://www.w3.org/2000/svg" viewBox="0 0 761.17 270.56"><g data-name="Capa 1"><path d="M305.26 163.78c55.71 0 111.48-1.58 167.11.58 34.18 1.33 55.62 27.73 38.86 61.38-13.43 27-38.09 37.33-66 40-51.28 4.91-102.77 1.14-154.15 2.18-2.58.05-6.33.52-6.29-3.42s3.81-3 6.38-3.38c5.14-.75 10.51-.8 15.37-2.41 8.27-2.71 12.46-9.23 13.46-17.93 2.47-19.83 1.47-39.73 1.73-59.61.07-5.18-2.22-7-7.21-7q-47.29.15-94.58 0c-5.08 0-6.82 1.44-4.63 6.45 8.21 18.78 16 37.73 24.57 56.36 5.6 12.24 14.25 21.33 28.72 22.92 2.59.28 6 .85 5.71 4.62-.33 4-3.91 3.29-6.46 3.29q-44.54.13-89.07 0c-2.56 0-6.26.68-6.54-3.2-.31-4.28 3.66-4.22 6.53-4.8 18-3.67 22-9.22 16.18-26.67-5.9-17.67-13.51-34.76-20.16-52.18-2.11-5.53-5.83-7-11.39-6.83-9.48.34-19 .24-28.46 0-3.87-.1-9.58 1.64-9.34-5.36s6-4.93 9.75-4.94q68.87-.21 137.74-.09zm54.35 47.74v30.22c0 4 .93 7.26 5.5 8.17 28.63 5.7 57 6.45 84.69-4.6 13.59-5.43 20.54-16.5 19.6-30-1-13.71-10.06-20.53-21.48-26-12.12-5.78-27.49-3.19-37.37-14.67-.58-.67-2.34-.42-3.55-.43-13.43 0-26.87.09-40.3-.07-5.07-.06-7.2 2-7.12 7.07.13 10.16.03 20.23.03 30.31zM574.31 138.28c-.72 22.17 2.38 44.49 12.86 65.17 14.26 28.15 37.65 43 68.8 47.08 39.6 5.17 68.64-11.36 91.57-42.15 2.82-3.79 5.4-12.68 11.81-7.83 5.14 3.89-2 9-4.3 13.06-45.05 78.69-159.69 70.9-201.68 6.79-31.74-48.47-32.64-99.25-8-150.94C574.42 8.43 654.12-18.76 716.5 14c13.18 6.93 17.09 5.31 23.76-8 1.41-2.83 2.4-5.76 6.36-5.38 4.34.42 4.16 3.83 4.38 6.83 1.79 24.39 3.61 48.78 5.21 73.18.2 3 1.54 7.5-3.1 8.45-5.11 1-5.6-3.77-6.77-7-3.53-9.8-7.46-19.38-12.82-28.38C717.59 26.91 693.16 14.75 663 15c-31.25.24-56.11 13.5-71.55 41.77-13.72 25.18-17.59 52.5-17.14 81.51z"/><path d="M126.14 65.76c-14.93 34.76-29 67.58-43.11 100.42-7.34 17.13-14.73 34.25-21.88 51.46a162.86 162.86 0 0 0-6.68 19c-3.47 12.53.67 19.19 13.22 22.15 1.78.42 3.66.39 5.44.79 3.34.76 8.71-.18 8.32 4.9-.41 5.27-5.75 3.3-9 3.33-21.72.19-43.44.14-65.16 0-2.8 0-6.87 1.05-7.28-3.4-.37-4.11 3.4-4.63 6.36-5.12 13-2.15 19.83-11.26 25-22.08 16.75-34.72 30.84-70.61 46.11-106C94.63 91.69 111.45 52 128.45 12.36c1.64-3.81 2.63-8.36 8.41-8.27s6.5 4.89 8.09 8.62c6.25 14.62 12.17 29.38 18.51 44 1.94 4.46 2 7.8-1.7 11.47-7.66 7.54-8.68 17.06-7 27.17.48 2.92 3.89 7-.61 8.47-4.7 1.51-10.53 2.27-13.27-4.31q-5.81-14-11.69-27.92c-.6-1.38-1.38-2.65-3.05-5.83zM359.49 9.49c24.95.79 54.12-2.16 82.9 3.7 13.34 2.71 25.84 7.44 37 15.49 19.12 13.84 25.76 33.35 25.6 56 0 4.44-1.68 6.89-6.43 6.85q-14.69-.11-29.38 0c-4.55 0-6.7-2.21-7.09-6.58q-.53-5.94-1.24-11.87c-3.42-27.82-18.85-43.36-46.67-47.63a150.84 150.84 0 0 0-44.77.06c-6.72 1-10.25 3.43-10 11.12.54 15.28 0 30.6.21 45.9.11 6.63-2.33 9.52-9.14 9.13a192.31 192.31 0 0 0-20.19 0c-6.29.31-8.66-2.14-8.65-8.51 0-13.75.61-27.5-1.09-41.26-2.29-18.47-6.59-23.18-25-25.25-2.12-.24-4.28-.21-6.41-.36s-4.57-.61-4.51-3.42 2.5-3.21 4.68-3.23c9.49-.1 19-.11 28.46-.12 12.57-.03 25.11-.02 41.72-.02zM217.49 69.18v29.77H215q-1.19-8.57-4.28-13.65a21.86 21.86 0 0 0-8.72-8.06 25.14 25.14 0 0 0-11.8-3 16.46 16.46 0 0 0-11.4 4q-4.51 4-4.51 9.17a10.6 10.6 0 0 0 2.85 7.17q4.11 4.76 19.55 12.7 12.59 6.47 17.2 9.93a24.52 24.52 0 0 1 7.09 8.16 20.76 20.76 0 0 1 2.49 9.84q0 9.78-7.92 16.85t-20.38 7.08a45 45 0 0 1-7.36-.57 78 78 0 0 1-8.52-2.32q-6.46-2-8.19-2a3.56 3.56 0 0 0-2.62 1q-1 1-1.43 3.94h-2.45v-29.52h2.45q1.72 9.27 4.64 13.87a22 22 0 0 0 8.92 7.65 28.63 28.63 0 0 0 13.16 3q8.28 0 13.09-4.19a12.76 12.76 0 0 0 4.81-9.9 13 13 0 0 0-1.82-6.41 19.44 19.44 0 0 0-5.67-6q-2.59-1.9-14.12-8.09a137.89 137.89 0 0 1-16.4-9.87 27 27 0 0 1-7.39-8.12 19.47 19.47 0 0 1-2.52-9.78q0-9.27 7.42-16t18.89-6.7a39.3 39.3 0 0 1 15.18 3.36 16.11 16.11 0 0 0 5.24 1.59 4 4 0 0 0 2.82-1 7.7 7.7 0 0 0 1.76-4zM252.62 80v19.08h14.18v4.44h-14.18v37.71q0 5.65 1.69 7.62a5.46 5.46 0 0 0 4.34 2 7.83 7.83 0 0 0 4.24-1.3 8.44 8.44 0 0 0 3.18-3.84h2.58a19.92 19.92 0 0 1-6.55 9.29 14.55 14.55 0 0 1-8.75 3.14 12.16 12.16 0 0 1-6-1.62 9.94 9.94 0 0 1-4.31-4.63q-1.39-3-1.39-9.3v-39.1h-9.61v-2.09a25.29 25.29 0 0 0 7.46-4.73 38 38 0 0 0 6.79-7.9 69.83 69.83 0 0 0 4.28-8.77zM325.93 99.08v35.23q0 10.09.5 12.35a5.45 5.45 0 0 0 1.59 3.14 3.93 3.93 0 0 0 2.55.89 12.23 12.23 0 0 0 4.64-1.08l.93 2.22L318 159h-3v-12.32q-7.82 8.13-11.93 10.22a18.86 18.86 0 0 1-8.68 2.09 14.28 14.28 0 0 1-8.85-2.82 14.6 14.6 0 0 1-5.2-7.27q-1.46-4.44-1.46-12.57v-26q0-4.13-.93-5.71a6.09 6.09 0 0 0-2.75-2.44q-1.82-.86-6.6-.79v-2.31h21.28V138q0 8.13 2.95 10.66a10.55 10.55 0 0 0 7.13 2.54 15.37 15.37 0 0 0 6.46-1.71 34.8 34.8 0 0 0 8.58-6.54V110q0-5-1.89-6.7t-7.85-1.87v-2.35z"/><path d="M383.46 150.68a30.58 30.58 0 0 1-8.68 6.38 21.78 21.78 0 0 1-9.15 1.94q-9.94 0-17.37-8t-7.42-20.47a36 36 0 0 1 8.22-22.88q8.22-10.35 21.14-10.35a18.67 18.67 0 0 1 13.26 4.89V91.46q0-10-.5-12.25a5.26 5.26 0 0 0-1.56-3.11 4.19 4.19 0 0 0-2.65-.83 14.51 14.51 0 0 0-4.57 1l-.86-2.22L391.41 67h3v67.22q0 10.22.5 12.47a5.45 5.45 0 0 0 1.59 3.14 3.92 3.92 0 0 0 2.55.89 15 15 0 0 0 4.77-1.08l.73 2.22-18 7.17h-3zm0-4.44v-30a19.62 19.62 0 0 0-2.39-7.87 13.44 13.44 0 0 0-5.27-5.37 13.21 13.21 0 0 0-6.4-1.81q-5.83 0-10.41 5-6 6.6-6 19.3t5.83 19.65q5.83 6.82 13 6.82 6 .04 11.64-5.72zM429.39 97.36v46.72q0 5.46.83 7.27a5.65 5.65 0 0 0 2.45 2.7q1.62.89 5.93.89v2.29h-29.49v-2.29q4.44 0 6-.83a5.74 5.74 0 0 0 2.42-2.73q.9-1.9.9-7.3v-22.41q0-9.46-.6-12.25a4.92 4.92 0 0 0-1.46-2.82 4.24 4.24 0 0 0-2.72-.79 13.76 13.76 0 0 0-4.51 1l-.93-2.29 18.29-7.11zM423.89 67a6.61 6.61 0 0 1 4.74 1.87 6.05 6.05 0 0 1 2 4.54 6.16 6.16 0 0 1-2 4.57 6.54 6.54 0 0 1-4.74 1.9 6.66 6.66 0 0 1-4.77-1.9 6.25 6.25 0 0 1 0-9.11 6.69 6.69 0 0 1 4.77-1.87zM475.85 97.36q13.79 0 22.14 10a30 30 0 0 1 7.09 19.68 35.77 35.77 0 0 1-3.91 15.81 27.7 27.7 0 0 1-10.77 12.06 29.42 29.42 0 0 1-15.27 4.09q-13.72 0-21.81-10.47a31.54 31.54 0 0 1-6.83-19.8 34 34 0 0 1 4.14-15.9 27.54 27.54 0 0 1 10.9-11.68 28.92 28.92 0 0 1 14.32-3.79zm-2.05 4.13a14.27 14.27 0 0 0-7.06 2q-3.55 2-5.73 7t-2.19 12.89q0 12.7 5.27 21.9t13.89 9.2a13.14 13.14 0 0 0 10.61-5.08q4.17-5.08 4.18-17.46 0-15.49-7-24.37a14.53 14.53 0 0 0-11.97-6.08z"/></g></svg>