<svg xmlns="http://www.w3.org/2000/svg" viewBox="0 0 761.17 270.56"><defs><style>.cls-1{font-size:130px;font-family:TimesNewRomanPSMT, Times New Roman;}</style></defs><title>studioabc</title><g id="Capa_2" data-name="Capa 2"><g id="Capa_1-2" data-name="Capa 1"><path d="M305.26,163.78c55.71,0,111.48-1.58,167.11.58,34.18,1.33,55.62,27.73,38.86,61.38-13.43,27-38.09,37.33-66,40-51.28,4.91-102.77,1.14-154.15,2.18-2.58.05-6.33.52-6.29-3.42s3.81-3,6.38-3.38c5.14-.75,10.51-.8,15.37-2.41C314.81,256,319,249.48,320,240.78c2.47-19.83,1.47-39.73,1.73-59.61.07-5.18-2.22-7-7.21-7q-47.29.15-94.58,0c-5.08,0-6.82,1.44-4.63,6.45,8.21,18.78,16,37.73,24.57,56.36,5.6,12.24,14.25,21.33,28.72,22.92,2.59.28,6,.85,5.71,4.62-.33,4-3.91,3.29-6.46,3.29q-44.54.13-89.07,0c-2.56,0-6.26.68-6.54-3.2-.31-4.28,3.66-4.22,6.53-4.8,18-3.67,22-9.22,16.18-26.67-5.9-17.67-13.51-34.76-20.16-52.18-2.11-5.53-5.83-7-11.39-6.83-9.48.34-19,.24-28.46,0-3.87-.1-9.58,1.64-9.34-5.36s6-4.93,9.75-4.94q68.87-.21,137.74-.09Zm54.35,47.74c0,10.07,0,20.15,0,30.22,0,4,.93,7.26,5.5,8.17,28.63,5.7,57,6.45,84.69-4.6,13.59-5.43,20.54-16.5,19.6-30-1-13.71-10.06-20.53-21.48-26-12.12-5.78-27.49-3.19-37.37-14.67-.58-.67-2.34-.42-3.55-.43-13.43,0-26.87.09-40.3-.07-5.07-.06-7.2,2-7.12,7.07C359.71,191.37,359.61,201.44,359.61,211.52Z"/><path d="M574.31,138.28c-.72,22.17,2.38,44.49,12.86,65.17,14.26,28.15,37.65,43,68.8,47.08,39.6,5.17,68.64-11.36,91.57-42.15,2.82-3.79,5.4-12.68,11.81-7.83,5.14,3.89-2,9-4.3,13.06C710,292.3,595.36,284.51,553.37,220.4c-31.74-48.47-32.64-99.25-8-150.94C574.42,8.43,654.12-18.76,716.5,14c13.18,6.93,17.09,5.31,23.76-8,1.41-2.83,2.4-5.76,6.36-5.38,4.34.42,4.16,3.83,4.38,6.83,1.79,24.39,3.61,48.78,5.21,73.18.2,3,1.54,7.5-3.1,8.45-5.11,1-5.6-3.77-6.77-7-3.53-9.8-7.46-19.38-12.82-28.38C717.59,26.91,693.16,14.75,663,15c-31.25.24-56.11,13.5-71.55,41.77C577.73,81.95,573.86,109.27,574.31,138.28Z"/><path d="M126.14,65.76c-14.93,34.76-29,67.58-43.11,100.42-7.34,17.13-14.73,34.25-21.88,51.46a162.86,162.86,0,0,0-6.68,19c-3.47,12.53.67,19.19,13.22,22.15,1.78.42,3.66.39,5.44.79,3.34.76,8.71-.18,8.32,4.9-.41,5.27-5.75,3.3-9,3.33-21.72.19-43.44.14-65.16,0-2.8,0-6.87,1.05-7.28-3.4-.37-4.11,3.4-4.63,6.36-5.12,13-2.15,19.83-11.26,25-22.08,16.75-34.72,30.84-70.61,46.11-106C94.63,91.69,111.45,52,128.45,12.36c1.64-3.81,2.63-8.36,8.41-8.27s6.5,4.89,8.09,8.62c6.25,14.62,12.17,29.38,18.51,44,1.94,4.46,2,7.8-1.7,11.47-7.66,7.54-8.68,17.06-7,27.17.48,2.92,3.89,7-.61,8.47-4.7,1.51-10.53,2.27-13.27-4.31q-5.81-14-11.69-27.92C128.59,70.21,127.81,68.94,126.14,65.76Z"/><path d="M359.49,9.49c24.95.79,54.12-2.16,82.9,3.7,13.34,2.71,25.84,7.44,37,15.49,19.12,13.84,25.76,33.35,25.6,56,0,4.44-1.68,6.89-6.43,6.85q-14.69-.11-29.38,0c-4.55,0-6.7-2.21-7.09-6.58q-.53-5.94-1.24-11.87C457.43,45.26,442,29.72,414.18,25.45a150.84,150.84,0,0,0-44.77.06c-6.72,1-10.25,3.43-10,11.12.54,15.28,0,30.6.21,45.9.11,6.63-2.33,9.52-9.14,9.13a192.31,192.31,0,0,0-20.19,0c-6.29.31-8.66-2.14-8.65-8.51,0-13.75.61-27.5-1.09-41.26-2.29-18.47-6.59-23.18-25-25.25-2.12-.24-4.28-.21-6.41-.36s-4.57-.61-4.51-3.42,2.5-3.21,4.68-3.23c9.49-.1,19-.11,28.46-.12C330.34,9.48,342.88,9.49,359.49,9.49Z"/><text class="cls-1" transform="translate(155.25 157.22) scale(1.04 1)">Studio</text></g></g></svg>