<svg xmlns="http://www.w3.org/2000/svg" viewBox="0 0 85.4 85.4"><defs><style>.cls-1{fill:#3c3d3d;}.cls-2{fill:none;stroke:#3c3d3d;stroke-linecap:round;stroke-linejoin:round;stroke-width:4px;}</style></defs><title>twitter</title><g id="Capa_2" data-name="Capa 2"><g id="Objects"><path class="cls-1" d="M32.86,54.19a14.38,14.38,0,0,0,.7,5.09,8.71,8.71,0,0,0,2.51,3.31A12.62,12.62,0,0,0,40.44,65a18.86,18.86,0,0,0,5.89.84,24.17,24.17,0,0,0,5.46-.59,29.11,29.11,0,0,0,5.64-2.06V55.53a13.29,13.29,0,0,1-7.35,2.4,7,7,0,0,1-3.69-1A3.7,3.7,0,0,1,44.73,55a19.88,19.88,0,0,1-.45-5.43V37.14H55.84V29.5H44.29V17.18H37.4a19,19,0,0,1-1.7,6.19,13.32,13.32,0,0,1-3.27,4.17,14.27,14.27,0,0,1-4.89,2.67v6.93h5.33Z"/><path class="cls-2" d="M25.61,2H59.79A23.61,23.61,0,0,1,83.4,25.61V83.4a0,0,0,0,1,0,0H2a0,0,0,0,1,0,0V25.61A23.61,23.61,0,0,1,25.61,2Z"/></g></g></svg>