<svg xmlns="http://www.w3.org/2000/svg" viewBox="0 0 85.4 85.4"><defs><style>.cls-1{fill:#3c3d3d;}.cls-2{fill:none;stroke:#3c3d3d;stroke-linecap:round;stroke-linejoin:round;stroke-width:4px;}</style></defs><g id="Capa_2" data-name="Capa 2"><g id="Objects"><path class="cls-1" d="M50.16 36.62a4.29 4.29 0 0 0 3.13-1.82v1.61H56V21.83h-2.71V32.9c-.29.41-1.06 1.1-1.59 1.1s-.7-.4-.7-1V21.83h-2.74V34c0 1.46.44 2.62 1.9 2.62zM38.09 32.77c0 2.57 1.34 3.91 4 3.91A3.71 3.71 0 0 0 46 32.77v-7.14a3.81 3.81 0 0 0-3.9-3.92 3.73 3.73 0 0 0-4 3.92zm2.79-6.91c0-.8.37-1.39 1.13-1.39s1.19.57 1.19 1.39v6.78c0 .79-.4 1.38-1.13 1.38a1.23 1.23 0 0 1-1.18-1.38zM31.63 36.41h3.05v-8.02l3.55-11.74h-3.1l-1.96 7.9-2.1-7.9H28l3.63 11.74v8.02zM59.65 39.73h-32a6.22 6.22 0 0 0-6.21 6.22v15.7a6.21 6.21 0 0 0 6.21 6.21h32a6.21 6.21 0 0 0 6.21-6.21v-15.7a6.22 6.22 0 0 0-6.21-6.22zM32 63.21h-2.95V47.12H26v-2.73h9v2.73h-3zm10.34 0h-2.62v-1.53A5.72 5.72 0 0 1 38.23 63c-1.39.8-3.3.78-3.3-2V49.33h2.58V60c0 .56.14.94.69.94s1.2-.64 1.52-1V49.33h2.58zm9.94-2.88c0 1.72-.64 3.05-2.36 3.05a3 3 0 0 1-2.45-1.24v1.07h-2.65V44.39h2.61v6.06a3.09 3.09 0 0 1 2.29-1.3c1.89 0 2.52 1.6 2.52 3.48zm9.54-3.74h-4.98v2.62c0 1 .09 1.94 1.13 1.94s1.15-.73 1.15-1.94v-1h2.66v1c0 2.67-1.15 4.3-3.87 4.3-2.47 0-3.72-1.8-3.72-4.3v-6.15A3.82 3.82 0 0 1 58.1 49c2.48 0 3.67 1.57 3.67 4.08z"/><path class="cls-1" d="M58 51.41c-1 0-1.15.67-1.15 1.63v1.4h2.28V53c-.01-.91-.21-1.59-1.13-1.59zM48 51.49a1.9 1.9 0 0 0-.53.42v8.65a2.25 2.25 0 0 0 .61.49 1.09 1.09 0 0 0 1.32-.14 1.58 1.58 0 0 0 .23-1v-7.12a1.76 1.76 0 0 0-.28-1.07 1.07 1.07 0 0 0-1.35-.23z"/><path class="cls-2" d="M25.61 2h34.18A23.61 23.61 0 0 1 83.4 25.61V83.4H2V25.61A23.61 23.61 0 0 1 25.61 2z"/></g></g></svg>