<svg xmlns="http://www.w3.org/2000/svg" viewBox="0 0 85.4 85.4"><defs><style>.cls-1{fill:#3c3d3d;}.cls-2{fill:none;stroke:#3c3d3d;stroke-linecap:round;stroke-linejoin:round;stroke-width:4px;}</style></defs><title>youtube</title><g id="Capa_2" data-name="Capa 2"><g id="Objects"><path class="cls-1" d="M50.16,36.62a4.29,4.29,0,0,0,3.13-1.82v1.61H56V21.83H53.29V32.9C53,33.31,52.23,34,51.7,34S51,33.6,51,33V21.83H48.26V34C48.26,35.46,48.7,36.62,50.16,36.62Z"/><path class="cls-1" d="M38.09,32.77c0,2.57,1.34,3.91,4,3.91A3.71,3.71,0,0,0,46,32.77V25.63a3.81,3.81,0,0,0-3.9-3.92,3.73,3.73,0,0,0-4,3.92Zm2.79-6.91c0-.8.37-1.39,1.13-1.39s1.19.57,1.19,1.39v6.78c0,.79-.4,1.38-1.13,1.38a1.23,1.23,0,0,1-1.18-1.38Z"/><polygon class="cls-1" points="31.63 36.41 34.68 36.41 34.68 28.39 38.23 16.65 35.13 16.65 33.17 24.55 31.07 16.65 28 16.65 31.63 28.39 31.63 36.41"/><path class="cls-1" d="M59.65,39.73h-32a6.22,6.22,0,0,0-6.21,6.22v15.7a6.21,6.21,0,0,0,6.21,6.21h32a6.21,6.21,0,0,0,6.21-6.21V45.95A6.22,6.22,0,0,0,59.65,39.73ZM32,63.21H29.05V47.12H26V44.39H35v2.73H32Zm10.34,0H39.72V61.68A5.72,5.72,0,0,1,38.23,63c-1.39.8-3.3.78-3.3-2V49.33h2.58V60c0,.56.14.94.69.94s1.2-.64,1.52-1V49.33H42.3Zm9.94-2.88c0,1.72-.64,3.05-2.36,3.05a3,3,0,0,1-2.45-1.24v1.07H44.82V44.39h2.61v6.06a3.09,3.09,0,0,1,2.29-1.3c1.89,0,2.52,1.6,2.52,3.48Zm9.54-3.74H56.84v2.62c0,1,.09,1.94,1.13,1.94s1.15-.73,1.15-1.94v-1h2.66v1c0,2.67-1.15,4.3-3.87,4.3-2.47,0-3.72-1.8-3.72-4.3V53.06A3.82,3.82,0,0,1,58.1,49c2.48,0,3.67,1.57,3.67,4.08Z"/><path class="cls-1" d="M58,51.41c-1,0-1.15.67-1.15,1.63v1.4h2.28V53C59.12,52.09,58.92,51.41,58,51.41Z"/><path class="cls-1" d="M48,51.49a1.9,1.9,0,0,0-.53.42v8.65a2.25,2.25,0,0,0,.61.49,1.09,1.09,0,0,0,1.32-.14,1.58,1.58,0,0,0,.23-1V52.79a1.76,1.76,0,0,0-.28-1.07A1.07,1.07,0,0,0,48,51.49Z"/><path class="cls-2" d="M25.61,2H59.79A23.61,23.61,0,0,1,83.4,25.61V83.4a0,0,0,0,1,0,0H2a0,0,0,0,1,0,0V25.61A23.61,23.61,0,0,1,25.61,2Z"/></g></g></svg>